<?xml version="1.0" encoding="UTF-8" standalone="no"?>
<svg
   xmlns:dc="http://purl.org/dc/elements/1.1/"
   xmlns:cc="http://creativecommons.org/ns#"
   xmlns:rdf="http://www.w3.org/1999/02/22-rdf-syntax-ns#"
   xmlns:svg="http://www.w3.org/2000/svg"
   xmlns="http://www.w3.org/2000/svg"
   xmlns:xlink="http://www.w3.org/1999/xlink"
   width="210mm"
   height="297mm"
   viewBox="0 0 210 297"
   version="1.1"
   id="svg8">
  <defs
     id="defs2">
    <linearGradient
       id="linearGradient2953">
      <stop
         style="stop-color:#aa0000;stop-opacity:1;"
         offset="0"
         id="stop2949" />
      <stop
         style="stop-color:#aa0900;stop-opacity:0"
         offset="1"
         id="stop2951" />
    </linearGradient>
    <linearGradient
       xlink:href="#linearGradient2953"
       id="linearGradient2955"
       x1="69.10257"
       y1="78.016441"
       x2="116.13274"
       y2="174.73126"
       gradientUnits="userSpaceOnUse" />
  </defs>
  <metadata
     id="metadata5">
    <rdf:RDF>
      <cc:Work
         rdf:about="">
        <dc:format>image/svg+xml</dc:format>
        <dc:type
           rdf:resource="http://purl.org/dc/dcmitype/StillImage" />
        <dc:title></dc:title>
      </cc:Work>
    </rdf:RDF>
  </metadata>
  <g
     id="layer1">
    <rect
       style="mix-blend-mode:normal;fill:url(#linearGradient2955);fill-opacity:1;fill-rule:evenodd;stroke-width:0.25467;opacity:1"
       id="rect14"
       width="25.386217"
       height="41.185608"
       x="53.913212"
       y="63.114647" />
  </g>
  <g
     id="layer2">
    <circle
       style="fill:#2b0000;stroke-width:0.210336"
       id="path63-3"
       d="m 67.984202,87.650862 a 0.97600263,0.75162673 0 0 1 1.002745,-0.707957 0.97600263,0.75162673 0 0 1 0.947636,0.75163 l -0.976003,-3.21e-4 z" />
    <circle
       style="fill:#550000;stroke-width:0.283448"
       id="path87-0"
       d="m -76.828294,75.607821 a 5.3157015,1.2648393 0 0 1 5.84554,-0.249485 5.3157015,1.2648393 0 0 1 3.168973,1.195117"
       transform="scale(-1,1)" />
    <path
       style="fill:#808000;stroke-width:0.264583"
       id="path113"
       d="m 67.73384,71.992082 -2.201651,-1.108639 -2.16142,1.185162 0.374031,-2.436482 -1.795073,-1.689398 2.432815,-0.39719 1.052005,-2.229267 1.129531,2.191006 2.445247,0.311634 -1.734726,1.751306 z" />
    <path
       style="fill:#550000;fill-rule:evenodd;stroke-width:0.286364"
       id="path10"
       d="m 51.510854,104.03641 a 18.776373,14.466786 0 0 1 15.037444,-5.585355 18.776373,14.466786 0 0 1 14.867496,5.849205 l -15.082496,8.61663 z" />
    <circle
       style="fill:#800000;stroke-width:0.264583"
       id="path24"
       d="m 56.179472,77.92731 a 4.0246859,2.0411441 0 0 1 3.223267,-0.788038 4.0246859,2.0411441 0 0 1 3.186815,0.825288 l -3.232929,1.215723 z" />
    <circle
       style="fill:#800000;stroke-width:0.264583"
       id="path24-7"
       d="m 69.102571,78.016444 a 4.0246859,2.0411441 0 0 1 3.223267,-0.788037 4.0246859,2.0411441 0 0 1 3.186816,0.825288 l -3.23293,1.215722 z" />
    <circle
       style="fill:#550000;stroke-width:0.336817"
       id="path54"
       d="m 56.288165,91.958407 a 10.34186,1.44096 0 0 1 9.672097,-0.973876 10.34186,1.44096 0 0 1 9.820655,0.944573" />
    <circle
       style="fill:#2b0000;stroke-width:0.210336"
       id="path63"
       d="m 61.978556,87.635206 a 0.97600263,0.75162673 0 0 1 1.002745,-0.707957 0.97600263,0.75162673 0 0 1 0.947636,0.75163 l -0.976003,-3.21e-4 z" />
    <circle
       style="fill:#550000;stroke-width:0.264583"
       id="path87"
       d="m 55.783664,75.469241 a 4.6316366,1.2648393 0 0 1 5.093292,-0.249485 4.6316366,1.2648393 0 0 1 2.761165,1.195116" />
  </g>
</svg>
